# AST/ASF file generated using VICON BodyLanguage
# -----------------------------------------------
:version 1.10
:name VICON
:units
  mass 1.0
  length 0.45
  angle deg
:documentation
   .ast/.asf automatically generated from VICON data using
   VICON BodyBuilder and BodyLanguage model FoxedUp or BRILLIANT.MOD
:root
   order TX TY TZ RX RY RZ
   axis XYZ
   position 0 0 0  
   orientation 0 0 0 
:bonedata
  begin
     id 1 
     name lhipjoint
     direction 0.54267 -0.795011 0.271047 
     length 2.39899 
     axis 0 0 0  XYZ
  end
  begin
     id 2 
     name lfemur
     direction 0.34202 -0.939693 0  
     length 7.49701  
     axis 0 0 20  XYZ
    dof rx ry rz
    limits (-160.0 20.0)
           (-70.0 70.0)
           (-60.0 70.0)
  end
  begin
     id 3 
     name ltibia
     direction 0.34202 -0.939693 0   
     length 8.1668   
     axis 0 0 20   XYZ
    dof rx
    limits (-10.0 170.0)
  end
  begin
     id 4 
     name lfoot
     direction 0.0736283 -0.202292 0.976554   
     length 2.13544   
     axis -90 7.62852e-016 20   XYZ
    dof rx rz
    limits (-45.0 90.0)
           (-70.0 20.0)
  end
  begin
     id 5 
     name ltoes
     direction 1.53557e-011 -4.22024e-011 1   
     length 1.07411   
     axis -90 7.62852e-016 20   XYZ
    dof rx
    limits (-90.0 20.0)
  end
  begin
     id 6 
     name rhipjoint
     direction -0.538061 -0.797813 0.272002   
     length 2.39057  
     axis 0 0 0  XYZ 
  end
  begin
     id 7 
     name rfemur
     direction -0.34202 -0.939693 0   
     length 7.50152   
     axis 0 0 -20   XYZ
    dof rx ry rz
    limits (-160.0 20.0)
           (-70.0 70.0)
           (-70.0 60.0)
  end
  begin
     id 8 
     name rtibia
     direction -0.34202 -0.939693 0   
     length 8.05793   
     axis 0 0 -20   XYZ
    dof rx
    limits (-10.0 170.0)
 end
 begin
     id 9 
     name rfoot
     direction -0.0765195 -0.210236 0.974652   
     length 2.28698  
     axis -90 -7.62852e-016 -20   XYZ
    dof rx rz
    limits (-45.0 90.0)
           (-20.0 70.0)
  end
  begin
     id 10 
     name rtoes
     direction -1.53542e-011 -4.21847e-011 1   
     length 1.14762   
     axis -90 -7.62852e-016 -20   XYZ
    dof rx
    limits (-90.0 20.0)
  end
  begin
     id 11 
     name lowerback
     direction -0.0217239 0.996592 -0.0795765   
     length 2.08176   
     axis 0 0 0   XYZ
    dof rx ry rz
    limits (-20.0 45.0)
           (-30.0 30.0)
           (-30.0 30.0)
  end
  begin
     id 12 
     name upperback
     direction -0.00563773 0.999651 -0.0258155   
     length 2.08898   
     axis 0 0 0   XYZ
    dof rx ry rz
    limits (-20.0 45.0)
           (-30.0 30.0)
           (-30.0 30.0)
  end
  begin
     id 13 
     name thorax
     direction 0.0032706 0.999923 0.0119599   
     length 2.0968   
     axis 0 0 0   XYZ
    dof rx ry rz
    limits (-20.0 45.0)
           (-30.0 30.0)
           (-30.0 30.0)
  end
  begin
     id 14 
     name lowerneck
     direction -0.0285886 0.99568 0.0883427   
     length 1.81272   
     axis 0 0 0   XYZ
    dof rx ry rz
    limits (-20.0 45.0)
           (-30.0 30.0)
           (-30.0 30.0)
  end
  begin
     id 15 
     name upperneck
     direction 0.0807535 0.97985 -0.18268   
     length 1.82518   
     axis 0 0 0   XYZ
    dof rx ry rz
    limits (-20.0 45.0)
           (-30.0 30.0)
           (-30.0 30.0)
  end
  begin
     id 16
     name head
     direction 0.0236605 0.997053 -0.0729767  
     length 1.84443  
     axis 0 0 0   XYZ
    dof rx ry rz
    limits (-20.0 45.0)
           (-30.0 30.0)
           (-30.0 30.0)
  end
  begin
     id 17 
     name lclavicle
     direction 0.918986 0.39378 -0.0200683  
     length 3.27822  
     axis 0 0 0   XYZ
    dof ry rz
    limits (-20.0 10.0)
           (0.0 20.0)
  end
  begin
     id 18 
     name lhumerus
     direction 1 -4.4897e-011 2.09544e-027   
     length 5.5568   
     axis 180 -30 -90   XYZ
    dof rx ry rz
    limits (-60.0 90.0)
           (-90.0 90.0)
           (-90.0 90.0)
  end
  begin
     id 19
     name lradius
     direction 1 -4.48957e-011 -1.27696e-026   
     length 3.63979   
     axis 180 -30 -90   XYZ
    dof rx
    limits (-10.0 170.0)
  end
  begin
     id 20
     name lwrist
     direction 1 -4.49001e-011 -1.49001e-026   
     length 1.8199   
     axis 9.0955e-015 90 90   XYZ
    dof ry
    limits (-180.0 0.0)
 end
  begin
     id 21 
     name lhand
     direction 1 -4.48709e-011 -2.9758e-026   
     length 0.569419   
     axis 1.90115e-014 90 90   XYZ
    dof rx rz
    limits (-90.0 90.0)
           (-45.0 45.0)
  end
  begin
     id 22 
     name lfingers
     direction 1 -4.49175e-011 -5.96505e-026   
     length 0.45908   
     axis 3.80223e-014 90 90   XYZ
    dof rx
    limits (0.0 90.0)
  end
  begin
     id 23
     name lthumb
     direction 0.707107 -6.34864e-011 0.707107   
     length 0.65915   
     axis -90 45 -3.84942e-014   XYZ
    dof rx rz
    limits (-45.0 45.0)
           (-45.0 45.0)
  end
  begin
     id 24 
     name rclavicle
     direction -0.911913 0.396426 -0.106115   
     length 3.46301  
     axis 0 0 0   XYZ 
    dof ry rz
    limits (-10.0 20.0)
           (-20.0 0.0)
  end
  begin
     id 25 
     name rhumerus
     direction -1 -4.48965e-011 7.78516e-028  
     length 5.34339   
     axis 180 30 90   XYZ
    dof rx ry rz
    limits (-90.0 60.0)
           (-90.0 90.0)
           (-90.0 90.0)
  end
  begin
     id 26 
     name rradius
     direction -1 -4.48948e-011 -5.79823e-027   
     length 3.65101   
     axis 180 30 90   XYZ
    dof rx
    limits (-10.0 170.0)
  end
  begin
     id 27 
     name rwrist
     direction -1 -4.48995e-011 -1.48996e-026   
     length 1.8255   
     axis 9.0955e-015 -90 -90   XYZ
    dof ry
    limits (-180.0 0.0)
  end
  begin
     id 28
     name rhand
     direction -1 -4.48957e-011 -2.97937e-026   
     length 0.694249   
     axis 1.90115e-014 -90 -90   XYZ
    dof rx rz
    limits (-90.0 90.0)
           (-45.0 45.0)
  end
  begin
     id 29
     name rfingers
     direction -1 -4.4898e-011 -5.95943e-026   
     length 0.559721   
     axis 3.80223e-014 -90 -90   XYZ
    dof rx
    limits (0.0 90.0)
  end
  begin
     id 30
     name rthumb
     direction -0.707107 -6.34969e-011 0.707107   
     length 0.803651   
     axis -90 -45 3.84942e-014   XYZ
    dof rx rz
    limits (-45.0 45.0)
           (-45.0 45.0)
  end
:hierarchy
  begin
    root lhipjoint rhipjoint lowerback
    lhipjoint lfemur
    lfemur ltibia
    ltibia lfoot
    lfoot ltoes
    rhipjoint rfemur
    rfemur rtibia
    rtibia rfoot
    rfoot rtoes
    lowerback upperback
    upperback thorax
    thorax lowerneck lclavicle rclavicle
    lowerneck upperneck
    upperneck head
    lclavicle lhumerus
    lhumerus lradius
    lradius lwrist
    lwrist lhand lthumb
    lhand lfingers
    rclavicle rhumerus
    rhumerus rradius
    rradius rwrist
    rwrist rhand rthumb
    rhand rfingers
  end

#!OML:ASF H:\Terrain\Walking\May29\JustinRory\rory.ASF
:FULLY-SPECIFIED
:DEGREES
261
root 11.9682 18.5506 -13.1383 -0.826342 -4.8076 -1.36099
lowerback -1.5021 0.775387 -10.0662
upperback 1.33927 1.35294 -3.83656
thorax 2.10721 0.547007 1.69182
lowerneck -5.89051 -7.16242 -5.84512
upperneck 19.9975 -12.6899 16.4001
head 8.62869 -5.15799 5.26089
rclavicle -6.16232e-015 3.18055e-015
rhumerus -6.86114 24.6497 -69.8728
rradius 109.359
rwrist 1.85066
rhand -19.2247 41.6976
rfingers 7.12502
rthumb 7.08829 11.8363
lclavicle -6.16232e-015 3.18055e-015
lhumerus -2.61429 -36.741 80.3708
lradius 106.96
lwrist -0.378249
lhand -28.8576 14.881
lfingers 7.12502
lthumb -2.21415 44.8492
rfemur -5.05314 10.6789 10.0285
rtibia 10.5376
rfoot 3.61712 -8.72076
rtoes -5.49642
lfemur 1.54147 -4.35129 -19.9952
ltibia 12.3362
lfoot -12.4486 7.85626
ltoes -3.88965
262
root 11.9489 18.5495 -13.1269 -0.906494 -4.81657 -1.27337
lowerback -1.81909 0.650494 -10.2438
upperback 1.559 1.25543 -3.77513
thorax 2.52312 0.471812 1.85547
lowerneck -6.3087 -7.04932 -5.89837
upperneck 20.1618 -12.5169 16.2861
head 8.73608 -5.06006 5.24006
rclavicle 4.77083e-015 3.33958e-014
rhumerus -6.12956 26.2178 -69.6587
rradius 109.12
rwrist 2.73524
rhand -19.3549 41.6821
rfingers 7.12502
rthumb 6.96257 11.8166
lclavicle 4.77083e-015 3.33958e-014
lhumerus -1.72963 -37.4571 80.0894
lradius 106.694
lwrist -0.796452
lhand -29.7061 13.7507
lfingers 7.12502
lthumb -3.03361 43.7088
rfemur -4.80078 10.7238 9.96859
rtibia 10.2868
rfoot 3.49787 -8.65289
rtoes -5.09116
lfemur 1.63665 -4.31538 -20.0247
ltibia 12.3666
lfoot -12.4741 7.7964
ltoes -3.88103
263
root 11.9315 18.5435 -13.1171 -0.952111 -4.72661 -1.36664
lowerback -1.69542 0.590206 -10.0097
upperback 1.46168 1.14316 -3.78878
thorax 2.36628 0.429704 1.70744
lowerneck -6.29243 -6.97515 -6.14447
upperneck 20.3371 -12.4274 16.3741
head 8.80199 -5.02262 5.32934
rclavicle 3.32964e-015 -1.27222e-014
rhumerus -5.7177 27.6297 -69.7526
rradius 108.45
rwrist 3.08497
rhand -19.3314 42.1849
rfingers 7.12502
rthumb 6.98525 12.3201
lclavicle 3.32964e-015 -1.27222e-014
lhumerus -1.76345 -38.1404 80.3896
lradius 106.377
lwrist -1.16832
lhand -30.1478 12.7478
lfingers 7.12502
lthumb -3.46016 42.6994
rfemur -4.61781 10.6059 10.1113
rtibia 10.1802
rfoot 3.4901 -8.41038
rtoes -6.04896
lfemur 1.71237 -4.28238 -19.8536
ltibia 12.3771
lfoot -12.4244 7.65975
ltoes -3.5461
264
root 11.9149 18.5355 -13.1081 -0.950718 -4.64284 -1.19815
lowerback -1.36742 0.467903 -9.96927
upperback 1.07811 0.903894 -4.04877
thorax 1.80862 0.346239 1.40405
lowerneck -5.80634 -6.81887 -5.96064
upperneck 20.578 -12.2781 16.361
head 8.75879 -4.95671 5.33395
rclavicle -5.61567e-015 -3.65764e-014
rhumerus -6.15503 29.0746 -70.7848
rradius 107.913
rwrist 3.49956
rhand -18.9615 42.6937
rfingers 7.12502
rthumb 7.34233 12.8411
lclavicle -5.61567e-015 -3.65764e-014
lhumerus -2.43189 -38.8505 80.6296
lradius 106.277
lwrist -1.54104
lhand -30.0441 11.4693
lfingers 7.12502
lthumb -3.36002 41.4226
rfemur -4.44894 10.4484 9.92895
rtibia 10.01
rfoot 3.45568 -8.08811
rtoes -7.20362
lfemur 1.68501 -4.17797 -19.982
ltibia 12.4723
lfoot -12.3451 7.48253
ltoes -3.58527
265
root 11.8965 18.5292 -13.0974 -1.014 -4.63965 -1.01307
lowerback -1.35853 0.453458 -10.0794
upperback 0.919324 0.87288 -4.18942
thorax 1.64168 0.341096 1.31727
lowerneck -5.31717 -6.77003 -5.80357
upperneck 20.5571 -12.19 16.1791
head 8.62393 -4.94538 5.26887
rclavicle -5.1684e-015 -2.22639e-014
rhumerus -6.5286 30.0678 -71.3821
rradius 107.63
rwrist 3.7044
rhand -18.3198 43.4444
rfingers 7.12502
rthumb 7.96165 13.6144
lclavicle -5.1684e-015 -2.22639e-014
lhumerus -2.94102 -39.7984 80.8598
lradius 106.482
lwrist -1.97442
lhand -29.9194 9.29154
lfingers 7.12502
lthumb -3.23957 39.2467
rfemur -4.20694 10.4135 9.73753
rtibia 9.8484
rfoot 3.13779 -7.8831
rtoes -7.17733
lfemur 1.73493 -3.94188 -20.1203
ltibia 12.5755
lfoot -12.2973 7.27965
ltoes -4.14489
